<svg width="32" height="32" viewBox="0 0 32 32" fill="none" xmlns="http://www.w3.org/2000/svg">
<g clip-path="url(#clip0_2_10011)">
<path d="M30.1524 11.83C30.3368 12.0144 30.4088 12.2832 30.3413 12.5351L26.6875 26.1713C26.62 26.4232 26.4232 26.62 26.1713 26.6875L12.5351 30.3413C12.2832 30.4088 12.0144 30.3368 11.83 30.1524L9.26925 27.5916C8.98421 27.3066 8.98421 26.8444 9.26925 26.5594L14.0111 21.8175C14.2105 21.6181 14.5069 21.5514 14.7724 21.6462L16.582 22.2916C16.8471 22.3862 17.1368 22.3852 17.4012 22.2888L20.7494 21.0683C21.0711 20.9511 21.328 20.7026 21.4559 20.385L23.4417 14.1059C23.6873 13.4962 22.9196 12.9887 22.4548 13.4535L18.1395 17.7687C17.9038 18.0045 17.5215 18.0045 17.2857 17.7687L14.2312 14.7142C13.9955 14.4784 13.9955 14.0962 14.2312 13.8604L18.5465 9.54518C19.0113 9.08038 18.5037 8.31268 17.894 8.55824L11.615 10.544C11.2973 10.672 11.0489 10.9288 10.9316 11.2506L9.71113 14.5987C9.61475 14.8631 9.61375 15.1529 9.7083 15.4179L10.3538 17.2275C10.4485 17.4931 10.3818 17.7895 10.1824 17.9888L5.44059 22.7307C5.15554 23.0157 4.69339 23.0157 4.40834 22.7307L1.84759 20.1699C1.6632 19.9855 1.59118 19.7168 1.65868 19.4649L5.3125 5.82863C5.38 5.57674 5.57674 5.38 5.82863 5.3125L19.4649 1.65868C19.7168 1.59118 19.9855 1.6632 20.1699 1.84759L30.1524 11.83Z" fill="#1557FF"/>
</g>
<defs>
<clipPath id="clip0_2_10011">
<rect width="32" height="32" fill="white"/>
</clipPath>
</defs>
</svg>
