<svg width="99" height="64" viewBox="0 0 99 64" fill="none" xmlns="http://www.w3.org/2000/svg">
<path d="M18.7209 3.52914C20.4238 1.30461 23.0656 0 25.8672 0H72.9445C75.7461 0 78.3879 1.30462 80.0909 3.52914L93.0447 20.4501C96.7849 25.3358 98.8117 31.3175 98.8117 37.4705V55.9665H0V37.4705C0 31.3175 2.02678 25.3358 5.76704 20.4501L18.7209 3.52914Z" fill="white"/>
<rect y="43.9163" width="16.8703" height="20.0837" fill="white"/>
<rect x="81.9414" y="43.9163" width="16.8703" height="20.0837" fill="white"/>
<path d="M0 18.8703C0 17.7657 0.895431 16.8703 2 16.8703H10.5858C11.6903 16.8703 12.5858 17.7657 12.5858 18.8703V25.9366C12.5858 27.4884 10.8953 28.449 9.56216 27.6548L0.976389 22.5398C0.370928 22.1791 0 21.5264 0 20.8216V18.8703Z" fill="white"/>
<path d="M98.8115 18.8703C98.8115 17.7657 97.9161 16.8703 96.8115 16.8703H88.2257C87.1212 16.8703 86.2257 17.7657 86.2257 18.8703V25.9366C86.2257 27.4884 87.9162 28.449 89.2494 27.6548L97.8351 22.5398C98.4406 22.1791 98.8115 21.5264 98.8115 20.8216V18.8703Z" fill="white"/>
<path fill-rule="evenodd" clip-rule="evenodd" d="M49.0093 45.4321H49.8274L56.3622 49.0913C58.9133 48.2274 61.2782 46.8894 63.3328 45.1478L63.3655 37.7846C63.5046 37.5556 63.6416 37.3224 63.7746 37.0872L70.2869 33.3851C70.8003 30.7881 70.8003 28.1157 70.2869 25.5187L63.7725 21.8085C63.6457 21.5712 63.5087 21.3401 63.3634 21.111L63.3389 13.7478C61.2811 12.0115 58.9142 10.6792 56.3622 9.82079L49.8172 13.4799H48.999L42.454 9.82079C39.9016 10.6836 37.5353 12.0208 35.4794 13.7622L35.4466 21.1254C35.3075 21.3544 35.1705 21.5876 35.0376 21.8228L28.5252 25.5249C28.0118 28.1219 28.0118 30.7943 28.5252 33.3913L35.0437 37.1035C35.1705 37.3408 35.3075 37.5719 35.4528 37.801L35.4773 45.1642C37.5351 46.9005 39.902 48.2329 42.454 49.0913L49.0093 45.4321ZM57.5893 29.456C57.5893 33.9744 53.9264 37.6374 49.408 37.6374C44.8895 37.6374 41.2266 33.9744 41.2266 29.456C41.2266 24.9376 44.8895 21.2747 49.408 21.2747C53.9264 21.2747 57.5893 24.9376 57.5893 29.456Z" fill="black"/>
</svg>
