<svg width="62" height="64" viewBox="0 0 62 64" fill="none" xmlns="http://www.w3.org/2000/svg">
<path d="M25.4285 2.82803C27.976 -0.942677 33.5282 -0.942677 36.0757 2.82803C37.7249 5.26912 40.823 6.27576 43.5921 5.27026C47.8694 3.71708 52.3612 6.98055 52.2058 11.5285C52.1052 14.4728 54.02 17.1082 56.8512 17.9223C61.2246 19.1799 62.9403 24.4604 60.1414 28.0484C58.3294 30.3712 58.3294 33.6288 60.1414 35.9516C62.9403 39.5396 61.2246 44.8201 56.8512 46.0777C54.02 46.8918 52.1052 49.5272 52.2058 52.4715C52.3612 57.0194 47.8694 60.2829 43.5921 58.7297C40.823 57.7242 37.7249 58.7309 36.0757 61.172C33.5282 64.9427 27.976 64.9427 25.4285 61.172C23.7793 58.7309 20.6812 57.7242 17.9121 58.7297C13.6348 60.2829 9.14299 57.0194 9.29838 52.4715C9.39898 49.5272 7.48424 46.8918 4.65299 46.0777C0.27961 44.8201 -1.4361 39.5396 1.36283 35.9516C3.17482 33.6288 3.17482 30.3712 1.36283 28.0484C-1.4361 24.4604 0.279609 19.1799 4.65299 17.9223C7.48424 17.1082 9.39898 14.4728 9.29838 11.5285C9.14299 6.98055 13.6348 3.71708 17.9121 5.27026C20.6812 6.27576 23.7793 5.26912 25.4285 2.82803Z" fill="white"/>
<path d="M50.5627 32C50.5627 42.9393 41.6916 51.8104 30.7523 51.8104C19.813 51.8104 10.9419 42.9393 10.9419 32C10.9419 21.0607 19.813 12.1896 30.7523 12.1896C41.6916 12.1896 50.5627 21.0607 50.5627 32Z" fill="black"/>
<path d="M30.7528 19.2975L34.8593 26.3479L42.8336 28.0747L37.3973 34.1589L38.2192 42.2766L30.7528 38.9864L23.2865 42.2766L24.1084 34.1589L18.672 28.0747L26.6463 26.3479L30.7528 19.2975Z" fill="white"/>
</svg>
