<svg width="196" height="42" viewBox="0 0 196 42" fill="none" xmlns="http://www.w3.org/2000/svg">
<g clip-path="url(#clip0_5664_20219)">
<path d="M38.4828 15.8493C38.7105 16.077 38.7995 16.409 38.7161 16.7202L34.2026 33.565C34.1192 33.8762 33.8762 34.1192 33.565 34.2026L16.7202 38.7161C16.409 38.7995 16.077 38.7105 15.8493 38.4828L12.686 35.3194C12.3338 34.9673 12.3338 34.3964 12.686 34.0443L18.5435 28.1867C18.7898 27.9404 19.1559 27.858 19.484 27.9751L21.7193 28.7724C22.0468 28.8892 22.4047 28.888 22.7313 28.7689L26.8673 27.2613C27.2648 27.1164 27.582 26.8096 27.7401 26.4171L30.1931 18.6607C30.4964 17.9075 29.5481 17.2805 28.9739 17.8547L23.6434 23.1853C23.3521 23.4765 22.8799 23.4765 22.5886 23.1853L18.8155 19.4121C18.5242 19.1208 18.5242 18.6486 18.8155 18.3574L24.146 13.0268C24.7202 12.4526 24.0933 11.5043 23.3401 11.8076L15.5836 14.2607C15.1912 14.4187 14.8843 14.736 14.7394 15.1334L13.2318 19.2694C13.1127 19.596 13.1115 19.954 13.2283 20.2814L14.0257 22.5167C14.1427 22.8448 14.0603 23.2109 13.814 23.4572L7.95642 29.3148C7.6043 29.6669 7.03341 29.6669 6.68129 29.3148L3.51801 26.1515C3.29023 25.9237 3.20128 25.5917 3.28465 25.2806L7.7982 8.43576C7.88157 8.12461 8.12461 7.88157 8.43576 7.7982L25.2806 3.28465C25.5917 3.20128 25.9237 3.29023 26.1515 3.51801L38.4828 15.8493Z" fill="#1557FF"/>
<path d="M46.66 20.366C46.66 18.9287 47.012 17.6013 47.716 16.384C48.4347 15.1667 49.4027 14.206 50.62 13.502C51.8373 12.7833 53.1647 12.424 54.602 12.424C56.0833 12.424 57.4473 12.8053 58.694 13.568C59.9407 14.3307 60.9087 15.3427 61.598 16.604L57.924 18.584C57.6013 17.9827 57.1393 17.506 56.538 17.154C55.9513 16.7873 55.306 16.604 54.602 16.604C53.9273 16.604 53.2967 16.7727 52.71 17.11C52.138 17.4473 51.6833 17.9093 51.346 18.496C51.0087 19.068 50.84 19.6913 50.84 20.366C50.84 21.0407 51.0087 21.6713 51.346 22.258C51.6833 22.83 52.138 23.2847 52.71 23.622C53.2967 23.9593 53.9273 24.128 54.602 24.128C55.3207 24.128 55.9807 23.9447 56.582 23.578C57.1833 23.1967 57.638 22.6907 57.946 22.06L61.642 24.062C60.9673 25.3527 59.9993 26.3867 58.738 27.164C57.4767 27.9267 56.098 28.308 54.602 28.308C53.1647 28.308 51.8373 27.956 50.62 27.252C49.4027 26.5333 48.4347 25.5653 47.716 24.348C47.012 23.1307 46.66 21.8033 46.66 20.366ZM77.0044 28H72.5384L71.6364 25.514H66.6864L65.7844 28H61.3184L66.9284 12.6H71.3944L77.0044 28ZM69.1724 18.738L68.1384 21.554H70.1844L69.1724 18.738ZM85.9883 28L83.3703 23.226H82.0723V28H77.8923V12.6H84.5363C85.5043 12.6 86.3916 12.8347 87.1983 13.304C88.0196 13.7733 88.6649 14.4187 89.1343 15.24C89.6183 16.0467 89.8603 16.934 89.8603 17.902C89.8603 18.782 89.6549 19.6033 89.2443 20.366C88.8483 21.1287 88.2983 21.7593 87.5943 22.258L90.7843 28H85.9883ZM82.0723 16.56V19.266H84.5363C84.9176 19.266 85.2403 19.134 85.5043 18.87C85.7683 18.5913 85.9003 18.2687 85.9003 17.902C85.9003 17.5353 85.7683 17.22 85.5043 16.956C85.2403 16.692 84.9176 16.56 84.5363 16.56H82.0723ZM108.504 28L105.886 23.226H104.588V28H100.408V12.6H107.052C108.02 12.6 108.907 12.8347 109.714 13.304C110.535 13.7733 111.181 14.4187 111.65 15.24C112.134 16.0467 112.376 16.934 112.376 17.902C112.376 18.782 112.171 19.6033 111.76 20.366C111.364 21.1287 110.814 21.7593 110.11 22.258L113.3 28H108.504ZM104.588 16.56V19.266H107.052C107.433 19.266 107.756 19.134 108.02 18.87C108.284 18.5913 108.416 18.2687 108.416 17.902C108.416 17.5353 108.284 17.22 108.02 16.956C107.756 16.692 107.433 16.56 107.052 16.56H104.588ZM118.467 22.104V24.04H124.275V28H114.287V12.6H124.165V16.56H118.467V18.144H123.615V22.104H118.467ZM132.304 12.6C133.272 12.6 134.159 12.8347 134.966 13.304C135.787 13.7733 136.432 14.4187 136.902 15.24C137.386 16.0467 137.628 16.934 137.628 17.902C137.628 18.87 137.386 19.7647 136.902 20.586C136.432 21.3927 135.787 22.038 134.966 22.522C134.159 22.9913 133.272 23.226 132.304 23.226H130.434V28H126.254V12.6H132.304ZM132.304 19.266C132.685 19.266 133.008 19.134 133.272 18.87C133.536 18.5913 133.668 18.2687 133.668 17.902C133.668 17.5353 133.536 17.22 133.272 16.956C133.008 16.692 132.685 16.56 132.304 16.56H130.434V19.266H132.304ZM151.77 28H147.304L146.402 25.514H141.452L140.55 28H136.084L141.694 12.6H146.16L151.77 28ZM143.938 18.738L142.904 21.554H144.95L143.938 18.738ZM153.088 28V12.6H157.268V28H153.088ZM167.994 28L165.376 23.226H164.078V28H159.898V12.6H166.542C167.51 12.6 168.397 12.8347 169.204 13.304C170.025 13.7733 170.671 14.4187 171.14 15.24C171.624 16.0467 171.866 16.934 171.866 17.902C171.866 18.782 171.661 19.6033 171.25 20.366C170.854 21.1287 170.304 21.7593 169.6 22.258L172.79 28H167.994ZM164.078 16.56V19.266H166.542C166.923 19.266 167.246 19.134 167.51 18.87C167.774 18.5913 167.906 18.2687 167.906 17.902C167.906 17.5353 167.774 17.22 167.51 16.956C167.246 16.692 166.923 16.56 166.542 16.56H164.078ZM189.906 12.6H194.9L189.862 20.388L194.79 28H189.796L186.936 23.534L184.054 28H179.06L183.988 20.388L178.95 12.6H183.944L186.936 17.22L189.906 12.6Z" fill="white"/>
<path d="M96.3312 12.886H99.0812L93.8672 28.44H91.1172L96.3312 12.886Z" fill="#1557FF"/>
</g>
<defs>
<clipPath id="clip0_5664_20219">
<rect width="196" height="42" fill="white"/>
</clipPath>
</defs>
</svg>
